<?xml version="1.0" encoding="UTF-8"?>
<svg xmlns="http://www.w3.org/2000/svg" xmlns:xlink="http://www.w3.org/1999/xlink" width="92px" height="92px" viewBox="0 0 92 92" version="1.1">
<g id="surface1">
<rect x="0" y="0" width="92" height="92" style="fill:rgb(100%,100%,100%);fill-opacity:1;stroke:none;"/>
<path style=" stroke:none;fill-rule:nonzero;fill:rgb(0%,0%,0%);fill-opacity:1;" d="M 43.054688 81.046875 C 45.421875 78.675781 45.421875 74.832031 43.054688 72.460938 C 40.683594 70.089844 36.839844 70.089844 34.46875 72.460938 C 32.097656 74.832031 32.097656 78.675781 34.46875 81.046875 C 36.839844 83.417969 40.683594 83.417969 43.054688 81.046875 "/>
<path style=" stroke:none;fill-rule:nonzero;fill:rgb(0%,0%,0%);fill-opacity:1;" d="M 46 -0.00390625 C 20.59375 -0.00390625 -0.00390625 20.59375 -0.00390625 46 C -0.00390625 47.117188 0.0390625 48.226562 0.117188 49.320312 C 11.34375 38.542969 28.785156 38.027344 40.597656 47.785156 L 54.46875 33.917969 C 52.457031 30.515625 52.914062 26.058594 55.835938 23.136719 C 59.300781 19.671875 64.917969 19.671875 68.382812 23.136719 C 71.847656 26.601562 71.847656 32.21875 68.382812 35.683594 C 65.460938 38.605469 61.003906 39.0625 57.601562 37.054688 L 43.804688 50.851562 C 54.375 62.503906 54.3125 80.355469 43.632812 91.945312 C 44.414062 91.984375 45.207031 92.003906 46 92.003906 C 71.40625 92.003906 92.003906 71.40625 92.003906 46 C 92.003906 20.59375 71.40625 -0.00390625 46 -0.00390625 "/>
<path style=" stroke:none;fill-rule:nonzero;fill:rgb(0%,0%,0%);fill-opacity:1;" d="M 11.472656 49.464844 C 9.101562 51.835938 9.101562 55.679688 11.472656 58.050781 C 13.84375 60.421875 17.683594 60.421875 20.054688 58.050781 C 22.425781 55.679688 22.425781 51.835938 20.054688 49.464844 C 17.683594 47.09375 13.84375 47.09375 11.472656 49.464844 "/>
</g>
</svg>
